<?xml version="1.0" encoding="utf-8"?>
<svg version="1.1" id="awesome-micropython" xmlns="http://www.w3.org/2000/svg" xmlns:xlink="http://www.w3.org/1999/xlink" x="0px" y="0px" viewBox="0 0 150 95" enable-background="new 0 0 150 95" xml:space="preserve">
<path id="m" d="M76.5,6.663v54h-3v-54h-33v69h15v-54h3v54h33v-54h3v54h15v-69H76.5z M104.5,69.663h-4v-7h4V69.663z"/>
<path id="glasses" fill="#EF61A3" d="M94.826,6.663l-2.602-2.385l2.994-3.263l6.157,5.648H94.826z M55.175,6.663l2.615-2.399L54.796,1l-6.169,5.663H55.175z M109.5,14.116v6l0.459,0.421H109.5h-33h-3h-33h-0.445l0.445-0.408v-6.005l-6.986,6.413H33.5v12.869c0,5.817,5.604,10.556,12.485,10.556h13.124c6.881,0,12.485-4.739,12.485-10.556v-8.456h6.81v8.456c0,5.817,5.604,10.556,12.485,10.556h13.124c6.881,0,12.485-4.739,12.485-10.556V20.537L109.5,14.116z"/>
<path id="text" fill="#231F20" d="M9.595,88.468h-4.2l-0.828,1.944H2.959l3.78-8.4h1.536l3.792,8.4h-1.632L9.595,88.468z M9.079,87.245l-1.584-3.672l-1.572,3.672H9.079z M22.663,84.004l-2.364,6.408h-1.44l-1.656-4.416l-1.68,4.416h-1.44l-2.352-6.408h1.416l1.692,4.729l1.764-4.729h1.26l1.728,4.752l1.74-4.752H22.663z M29.515,87.689h-5.028c0.088,0.472,0.318,0.846,0.69,1.122c0.372,0.275,0.834,0.413,1.386,0.413c0.704,0,1.284-0.231,1.74-0.695l0.804,0.924c-0.288,0.344-0.652,0.604-1.092,0.78s-0.936,0.264-1.488,0.264c-0.704,0-1.324-0.14-1.86-0.42c-0.536-0.28-0.95-0.67-1.242-1.17s-0.438-1.066-0.438-1.698c0-0.624,0.142-1.186,0.426-1.686c0.284-0.5,0.678-0.891,1.182-1.17c0.504-0.28,1.072-0.421,1.704-0.421c0.624,0,1.182,0.139,1.674,0.414c0.492,0.276,0.876,0.664,1.152,1.164c0.276,0.5,0.414,1.078,0.414,1.734C29.539,87.349,29.531,87.497,29.515,87.689z M25.081,85.559c-0.332,0.283-0.534,0.661-0.606,1.134h3.636c-0.064-0.464-0.26-0.84-0.588-1.128c-0.328-0.288-0.736-0.433-1.224-0.433C25.819,85.132,25.413,85.275,25.081,85.559z M31.435,90.293c-0.496-0.136-0.892-0.308-1.188-0.516l0.576-1.141c0.288,0.192,0.634,0.347,1.038,0.462c0.404,0.116,0.802,0.175,1.194,0.175c0.896,0,1.344-0.236,1.344-0.708c0-0.225-0.114-0.38-0.342-0.469c-0.228-0.088-0.594-0.172-1.098-0.252c-0.528-0.079-0.958-0.172-1.29-0.275c-0.332-0.104-0.62-0.286-0.864-0.546c-0.244-0.26-0.366-0.622-0.366-1.086c0-0.608,0.254-1.095,0.762-1.458c0.508-0.364,1.194-0.547,2.058-0.547c0.44,0,0.88,0.051,1.32,0.15c0.44,0.101,0.8,0.234,1.08,0.402l-0.576,1.14c-0.544-0.319-1.156-0.479-1.836-0.479c-0.44,0-0.774,0.065-1.002,0.197s-0.342,0.307-0.342,0.522c0,0.24,0.122,0.41,0.366,0.51c0.244,0.101,0.622,0.194,1.134,0.282c0.512,0.08,0.932,0.172,1.26,0.275c0.328,0.104,0.61,0.28,0.846,0.528c0.236,0.248,0.354,0.601,0.354,1.056c0,0.601-0.26,1.08-0.78,1.44s-1.228,0.54-2.124,0.54C32.439,90.497,31.931,90.428,31.435,90.293z M38.287,90.077c-0.52-0.28-0.926-0.67-1.218-1.17s-0.438-1.066-0.438-1.698s0.146-1.195,0.438-1.692c0.292-0.495,0.698-0.884,1.218-1.163c0.52-0.28,1.104-0.421,1.752-0.421c0.656,0,1.244,0.141,1.764,0.421c0.52,0.279,0.926,0.668,1.218,1.163c0.292,0.497,0.438,1.061,0.438,1.692s-0.146,1.198-0.438,1.698c-0.292,0.5-0.698,0.89-1.218,1.17s-1.108,0.42-1.764,0.42C39.391,90.497,38.807,90.357,38.287,90.077z M41.407,88.661c0.36-0.368,0.54-0.852,0.54-1.452c0-0.6-0.18-1.084-0.54-1.452c-0.36-0.367-0.816-0.552-1.368-0.552c-0.552,0-1.006,0.185-1.362,0.552c-0.356,0.368-0.534,0.853-0.534,1.452c0,0.601,0.178,1.084,0.534,1.452s0.81,0.552,1.362,0.552C40.591,89.212,41.047,89.029,41.407,88.661z M54.907,84.634c0.472,0.469,0.708,1.17,0.708,2.106v3.672h-1.5v-3.48c0-0.56-0.125-0.981-0.372-1.266c-0.248-0.284-0.604-0.426-1.068-0.426c-0.504,0-0.908,0.166-1.212,0.498s-0.456,0.806-0.456,1.422v3.252h-1.5v-3.48c0-0.56-0.124-0.981-0.372-1.266c-0.248-0.284-0.604-0.426-1.068-0.426c-0.512,0-0.918,0.164-1.218,0.492c-0.3,0.328-0.45,0.804-0.45,1.428v3.252h-1.5v-6.408h1.428v0.816c0.24-0.288,0.54-0.508,0.9-0.66s0.76-0.229,1.2-0.229c0.48,0,0.906,0.091,1.278,0.271s0.666,0.446,0.882,0.798c0.264-0.336,0.604-0.598,1.02-0.786c0.416-0.188,0.876-0.282,1.38-0.282C53.794,83.932,54.435,84.167,54.907,84.634z M63.594,87.689h-5.028c0.088,0.472,0.318,0.846,0.69,1.122c0.372,0.275,0.834,0.413,1.386,0.413c0.704,0,1.284-0.231,1.74-0.695l0.804,0.924c-0.288,0.344-0.652,0.604-1.092,0.78s-0.936,0.264-1.488,0.264c-0.704,0-1.324-0.14-1.86-0.42c-0.536-0.28-0.95-0.67-1.242-1.17s-0.438-1.066-0.438-1.698c0-0.624,0.142-1.186,0.426-1.686c0.284-0.5,0.678-0.891,1.182-1.17c0.504-0.28,1.072-0.421,1.704-0.421c0.624,0,1.182,0.139,1.674,0.414c0.492,0.276,0.876,0.664,1.152,1.164c0.276,0.5,0.414,1.078,0.414,1.734C63.618,87.349,63.61,87.497,63.594,87.689z M59.16,85.559c-0.332,0.283-0.534,0.661-0.606,1.134h3.636c-0.064-0.464-0.26-0.84-0.588-1.128c-0.328-0.288-0.736-0.433-1.224-0.433C59.898,85.132,59.492,85.275,59.16,85.559z M76.23,90.413l-0.012-5.568l-2.761,4.608h-0.696l-2.759-4.536v5.496h-1.488v-8.4h1.284l3.336,5.568l3.275-5.568h1.284l0.012,8.4H76.23z M79.902,82.691c-0.184-0.172-0.276-0.386-0.276-0.643c0-0.256,0.093-0.47,0.276-0.642s0.412-0.258,0.684-0.258s0.5,0.082,0.684,0.246c0.185,0.164,0.277,0.37,0.277,0.617c0,0.265-0.091,0.486-0.271,0.666c-0.181,0.181-0.41,0.271-0.69,0.271C80.314,82.949,80.086,82.863,79.902,82.691z M79.83,84.004h1.5v6.408h-1.5V84.004z M84.45,90.077c-0.528-0.28-0.94-0.67-1.236-1.17s-0.444-1.066-0.444-1.698s0.148-1.195,0.444-1.692c0.296-0.495,0.706-0.884,1.229-1.163c0.524-0.28,1.123-0.421,1.795-0.421c0.631,0,1.186,0.129,1.662,0.385c0.476,0.256,0.834,0.624,1.074,1.104l-1.152,0.672c-0.185-0.296-0.414-0.518-0.69-0.666c-0.276-0.147-0.578-0.222-0.905-0.222c-0.561,0-1.025,0.182-1.393,0.546c-0.368,0.364-0.553,0.851-0.553,1.458c0,0.608,0.183,1.094,0.547,1.458c0.363,0.364,0.83,0.546,1.398,0.546c0.327,0,0.629-0.073,0.905-0.222s0.506-0.37,0.69-0.666l1.152,0.672c-0.248,0.48-0.611,0.851-1.086,1.11c-0.477,0.26-1.027,0.39-1.65,0.39C85.574,90.497,84.979,90.357,84.45,90.077z M93.979,83.932v1.429c-0.129-0.024-0.244-0.036-0.348-0.036c-0.585,0-1.041,0.17-1.369,0.51s-0.492,0.83-0.492,1.47v3.108h-1.5v-6.408h1.429v0.937C92.131,84.269,92.891,83.932,93.979,83.932z M96.318,90.077c-0.521-0.28-0.926-0.67-1.219-1.17c-0.291-0.5-0.438-1.066-0.438-1.698s0.146-1.195,0.438-1.692c0.293-0.495,0.698-0.884,1.219-1.163c0.52-0.28,1.104-0.421,1.752-0.421c0.656,0,1.244,0.141,1.764,0.421c0.52,0.279,0.926,0.668,1.219,1.163c0.291,0.497,0.438,1.061,0.438,1.692s-0.146,1.198-0.438,1.698c-0.293,0.5-0.699,0.89-1.219,1.17s-1.107,0.42-1.764,0.42C97.422,90.497,96.838,90.357,96.318,90.077z M99.438,88.661c0.36-0.368,0.541-0.852,0.541-1.452c0-0.6-0.181-1.084-0.541-1.452c-0.359-0.367-0.815-0.552-1.367-0.552c-0.553,0-1.006,0.185-1.362,0.552c-0.356,0.368-0.534,0.853-0.534,1.452c0,0.601,0.178,1.084,0.534,1.452s0.81,0.552,1.362,0.552C98.622,89.212,99.078,89.029,99.438,88.661z M108.432,82.373c0.54,0.24,0.954,0.584,1.242,1.032s0.432,0.979,0.432,1.596c0,0.608-0.144,1.139-0.432,1.59c-0.288,0.452-0.702,0.798-1.242,1.038s-1.174,0.36-1.902,0.36h-1.896v2.424h-1.56v-8.4h3.455C107.258,82.012,107.892,82.132,108.432,82.373z M108.006,86.237c0.352-0.288,0.527-0.7,0.527-1.236s-0.176-0.948-0.527-1.236c-0.352-0.287-0.868-0.432-1.548-0.432h-1.824v3.336h1.824C107.138,86.669,107.654,86.525,108.006,86.237z M117.582,84.004l-3,6.924c-0.28,0.696-0.62,1.187-1.021,1.471c-0.4,0.283-0.884,0.426-1.452,0.426c-0.32,0-0.636-0.052-0.947-0.156c-0.312-0.104-0.568-0.248-0.769-0.432l0.601-1.104c0.144,0.136,0.313,0.244,0.51,0.324c0.195,0.08,0.394,0.12,0.594,0.12c0.265,0,0.481-0.068,0.654-0.204c0.172-0.136,0.33-0.364,0.474-0.684l0.108-0.252l-2.797-6.433h1.561l2.016,4.74l2.028-4.74H117.582z M122.55,90.065c-0.176,0.144-0.39,0.252-0.642,0.323c-0.252,0.072-0.519,0.108-0.798,0.108c-0.704,0-1.248-0.184-1.633-0.552c-0.384-0.368-0.575-0.904-0.575-1.608v-3.084h-1.057v-1.2h1.057v-1.464h1.5v1.464h1.716v1.2h-1.716V88.3c0,0.312,0.075,0.551,0.228,0.714c0.152,0.164,0.372,0.246,0.66,0.246c0.336,0,0.616-0.088,0.84-0.264L122.55,90.065z M129.366,84.64c0.487,0.473,0.731,1.173,0.731,2.101v3.672h-1.5v-3.48c0-0.56-0.132-0.981-0.396-1.266c-0.265-0.284-0.641-0.426-1.128-0.426c-0.553,0-0.988,0.166-1.309,0.498s-0.479,0.81-0.479,1.434v3.24h-1.5v-8.904h1.5v3.24c0.247-0.264,0.554-0.466,0.918-0.605c0.363-0.141,0.77-0.211,1.218-0.211C128.229,83.932,128.878,84.169,129.366,84.64z M133.193,90.077c-0.521-0.28-0.927-0.67-1.219-1.17s-0.438-1.066-0.438-1.698s0.146-1.195,0.438-1.692c0.292-0.495,0.698-0.884,1.219-1.163c0.52-0.28,1.104-0.421,1.752-0.421c0.655,0,1.243,0.141,1.764,0.421c0.52,0.279,0.926,0.668,1.218,1.163c0.292,0.497,0.438,1.061,0.438,1.692s-0.146,1.198-0.438,1.698s-0.698,0.89-1.218,1.17c-0.521,0.28-1.108,0.42-1.764,0.42C134.297,90.497,133.713,90.357,133.193,90.077z M136.313,88.661c0.359-0.368,0.54-0.852,0.54-1.452c0-0.6-0.181-1.084-0.54-1.452c-0.36-0.367-0.816-0.552-1.368-0.552c-0.553,0-1.007,0.185-1.362,0.552c-0.356,0.368-0.534,0.853-0.534,1.452c0,0.601,0.178,1.084,0.534,1.452c0.355,0.368,0.81,0.552,1.362,0.552C135.497,89.212,135.953,89.029,136.313,88.661z M145.386,84.64c0.487,0.473,0.731,1.173,0.731,2.101v3.672h-1.5v-3.48c0-0.56-0.132-0.981-0.396-1.266c-0.265-0.284-0.641-0.426-1.128-0.426c-0.553,0-0.988,0.166-1.309,0.498s-0.479,0.81-0.479,1.434v3.24h-1.5v-6.408h1.428v0.828c0.248-0.296,0.56-0.52,0.936-0.672s0.8-0.229,1.272-0.229C144.249,83.932,144.897,84.169,145.386,84.64z"/>
</svg>
