<?xml version="1.0" encoding="utf-8"?>
<svg version="1.1" id="awesome-micropython" xmlns="http://www.w3.org/2000/svg" xmlns:xlink="http://www.w3.org/1999/xlink" x="0px" y="0px" viewBox="0 0 83 75" style="enable-background:new 0 0 83 75;" xml:space="preserve">
<path id="m" d="M43.001,5.689v54.244h-3V5.689H7V75h15V20.756h3V75h33.001V20.756h3V75h15V5.689C76.002,5.689,43.001,5.689,43.001,5.689z M71.002,68.973h-4v-7.032h4V68.973z"/>
<path id="glasses" fill="#EF61A3" d="M61.327,5.689l-2.602-2.396l2.994-3.278l6.157,5.673C67.877,5.689,61.327,5.689,61.327,5.689z M21.676,5.689l2.615-2.41L21.297,0l-6.169,5.689H21.676z M76.002,13.175v6.027l0.459,0.423h-0.459H43.001h-3H7H6.555L7,19.215v-6.032l-6.986,6.442H0v12.927c0,5.843,5.604,10.604,12.485,10.604H25.61c6.881,0,12.485-4.76,12.485-10.604v-8.494h6.81v8.494c0,5.843,5.604,10.604,12.485,10.604h13.124c6.881,0,12.485-4.76,12.485-10.604V19.625L76.002,13.175z"/>
</svg>
