<svg viewBox="0 0 900 500" xmlns="http://www.w3.org/2000/svg" xmlns:xlink="http://www.w3.org/1999/xlink">
<defs>
	<rect id="box" width="900" height="500"/>
</defs>
<clipPath id="clip">
	<use xlink:href="#box" overflow="visible" />
</clipPath>
<g clip-path="url(#clip)" fill="none" stroke="#000000" opacity="0.1" stroke-miterlimit="10">
	<g id="backslash">
		<line x1="-26.314" y1="-495" x2="926.314" y2="55"/>
		<line x1="-26.314" y1="-455" x2="926.314" y2="95"/>
		<line x1="-26.314" y1="-415" x2="926.314" y2="135"/>
		<line x1="-26.314" y1="-375" x2="926.314" y2="175"/>
		<line x1="-26.314" y1="-335" x2="926.314" y2="215"/>
		<line x1="-26.314" y1="-295" x2="926.314" y2="255"/>
		<line x1="-26.314" y1="-255" x2="926.314" y2="295"/>
		<line x1="-26.314" y1="-215" x2="926.314" y2="335"/>
		<line x1="-26.314" y1="-175" x2="926.314" y2="375"/>
		<line x1="-26.314" y1="-135" x2="926.314" y2="415"/>
		<line x1="-26.314" y1="-95" x2="926.314" y2="455"/>
		<line x1="-26.314" y1="-55" x2="926.314" y2="495"/>
		<line x1="-26.314" y1="-15" x2="926.314" y2="535"/>
		<line x1="-26.314" y1="25" x2="926.314" y2="575"/>
		<line x1="-26.314" y1="65" x2="926.314" y2="615"/>
		<line x1="-26.314" y1="105" x2="926.314" y2="655"/>
		<line x1="-26.314" y1="145" x2="926.314" y2="695"/>
		<line x1="-26.314" y1="185" x2="926.314" y2="735"/>
		<line x1="-26.314" y1="225" x2="926.314" y2="775"/>
		<line x1="-26.314" y1="265" x2="926.314" y2="815"/>
		<line x1="-26.314" y1="305" x2="926.314" y2="855"/>
		<line x1="-26.314" y1="345" x2="926.314" y2="895"/>
		<line x1="-26.314" y1="385" x2="926.314" y2="935"/>
		<line x1="-26.314" y1="425" x2="926.314" y2="975"/>
		<line x1="-26.314" y1="465" x2="926.314" y2="1015"/>
	</g>
	<g id="slash">
		<line x1="-26.314" y1="55" x2="926.314" y2="-495"/>
		<line x1="-26.314" y1="95" x2="926.314" y2="-455"/>
		<line x1="-26.314" y1="135" x2="926.314" y2="-415"/>
		<line x1="-26.314" y1="175" x2="926.314" y2="-375"/>
		<line x1="-26.314" y1="215" x2="926.314" y2="-335"/>
		<line x1="-26.314" y1="255" x2="926.314" y2="-295"/>
		<line x1="-26.314" y1="295" x2="926.314" y2="-255"/>
		<line x1="-26.314" y1="335" x2="926.314" y2="-215"/>
		<line x1="-26.314" y1="375" x2="926.314" y2="-175"/>
		<line x1="-26.314" y1="415" x2="926.314" y2="-135"/>
		<line x1="-26.314" y1="455" x2="926.314" y2="-95"/>
		<line x1="-26.314" y1="495" x2="926.314" y2="-55"/>
		<line x1="-26.314" y1="535" x2="926.314" y2="-15"/>
		<line x1="-26.314" y1="575" x2="926.314" y2="25"/>
		<line x1="-26.314" y1="615" x2="926.314" y2="65"/>
		<line x1="-26.314" y1="655" x2="926.314" y2="105"/>
		<line x1="-26.314" y1="695" x2="926.314" y2="145"/>
		<line x1="-26.314" y1="735" x2="926.314" y2="185"/>
		<line x1="-26.314" y1="775" x2="926.314" y2="225"/>
		<line x1="-26.314" y1="815" x2="926.314" y2="265"/>
		<line x1="-26.314" y1="855" x2="926.314" y2="305"/>
		<line x1="-26.314" y1="895" x2="926.314" y2="345"/>
		<line x1="-26.314" y1="935" x2="926.314" y2="385"/>
		<line x1="-26.314" y1="975" x2="926.314" y2="425"/>
		<line x1="-26.314" y1="1015" x2="926.314" y2="465"/>
	</g>
</g>
<path id="m" d="M455.045,102.303v181.615h-10.09V102.303H333.968v232.063h50.449V152.751h10.09v181.615h110.987V152.751h10.09v181.615h50.449V102.303H455.045z M549.216,314.187h-13.453v-23.543h13.453V314.187z"/>
<path id="glasses" fill="#EF61A3" d="M516.679,102.303l-8.75-8.022l10.069-10.975l20.709,18.997H516.679z M383.324,102.303l8.794-8.07L382.05,83.258l-20.746,19.045H383.324z M566.032,127.369v20.18l1.545,1.416h-1.545H455.045h-10.09H333.968h-1.497l1.497-1.374v-20.195l-23.495,21.568h-0.048v43.28c0,19.564,18.848,35.502,41.992,35.502h44.139c23.143,0,41.992-15.938,41.992-35.502v-28.44h22.905v28.44c0,19.564,18.848,35.502,41.992,35.502h44.139c23.143,0,41.992-15.938,41.992-35.502v-43.28L566.032,127.369z"/>
<path id="awesome_micropython" d="M230.026,389.509H215.9l-2.785,6.538h-5.407l12.713-28.251h5.166l12.753,28.251h-5.488L230.026,389.509z M228.291,385.393l-5.328-12.351l-5.287,12.351H228.291z M273.977,374.495l-7.95,21.552h-4.843l-5.57-14.853l-5.649,14.853h-4.843l-7.91-21.552h4.762l5.69,15.901l5.933-15.901h4.238l5.812,15.982l5.853-15.982H273.977z M297.021,386.886h-16.91c0.295,1.588,1.07,2.845,2.32,3.773c1.252,0.928,2.805,1.393,4.662,1.393c2.367,0,4.318-0.78,5.852-2.341l2.703,3.107c-0.967,1.157-2.191,2.031-3.672,2.623s-3.148,0.888-5.004,0.888c-2.369,0-4.453-0.47-6.256-1.412c-1.803-0.941-3.195-2.253-4.178-3.936c-0.982-1.681-1.473-3.585-1.473-5.71c0-2.099,0.478-3.989,1.432-5.671c0.955-1.681,2.281-2.993,3.977-3.935s3.605-1.413,5.73-1.413c2.1,0,3.977,0.464,5.631,1.393s2.945,2.233,3.873,3.915c0.93,1.682,1.393,3.626,1.393,5.832C297.102,385.742,297.074,386.239,297.021,386.886z M282.109,379.722c-1.117,0.955-1.797,2.227-2.039,3.813h12.229c-0.215-1.56-0.873-2.824-1.977-3.793s-2.477-1.453-4.117-1.453C284.592,378.289,283.225,378.767,282.109,379.722z M303.479,395.644c-1.668-0.457-3-1.036-3.994-1.735l1.938-3.834c0.967,0.646,2.131,1.164,3.49,1.554c1.357,0.39,2.697,0.585,4.016,0.585c3.014,0,4.52-0.793,4.52-2.381c0-0.753-0.383-1.278-1.15-1.574c-0.766-0.296-1.996-0.578-3.691-0.848c-1.777-0.269-3.223-0.578-4.34-0.929c-1.115-0.349-2.084-0.961-2.904-1.836c-0.822-0.874-1.232-2.092-1.232-3.652c0-2.045,0.854-3.679,2.562-4.903s4.016-1.837,6.922-1.837c1.48,0,2.961,0.169,4.439,0.505c1.48,0.337,2.691,0.787,3.633,1.352l-1.938,3.834c-1.83-1.075-3.889-1.614-6.174-1.614c-1.48,0-2.604,0.223-3.371,0.666c-0.766,0.444-1.15,1.029-1.15,1.756c0,0.807,0.41,1.379,1.232,1.715c0.82,0.337,2.09,0.653,3.812,0.949c1.723,0.269,3.135,0.578,4.238,0.928s2.051,0.942,2.846,1.775c0.793,0.835,1.189,2.019,1.189,3.552c0,2.019-0.875,3.633-2.623,4.844c-1.748,1.21-4.131,1.815-7.143,1.815C306.855,396.329,305.146,396.101,303.479,395.644z M326.523,394.917c-1.75-0.941-3.115-2.253-4.096-3.936c-0.982-1.681-1.475-3.585-1.475-5.71c0-2.126,0.492-4.022,1.475-5.691c0.98-1.668,2.346-2.973,4.096-3.914c1.748-0.941,3.713-1.413,5.893-1.413c2.205,0,4.184,0.472,5.934,1.413c1.748,0.941,3.113,2.246,4.096,3.914c0.982,1.669,1.473,3.565,1.473,5.691c0,2.125-0.49,4.029-1.473,5.71c-0.982,1.683-2.348,2.994-4.096,3.936c-1.75,0.942-3.729,1.412-5.934,1.412C330.236,396.329,328.271,395.859,326.523,394.917z M337.018,390.154c1.211-1.237,1.816-2.865,1.816-4.883c0-2.019-0.605-3.646-1.816-4.884c-1.211-1.237-2.744-1.856-4.602-1.856s-3.385,0.619-4.58,1.856c-1.197,1.238-1.797,2.865-1.797,4.884c0,2.018,0.6,3.646,1.797,4.883c1.195,1.238,2.723,1.856,4.58,1.856S335.807,391.393,337.018,390.154z M382.42,376.614c1.588,1.574,2.381,3.935,2.381,7.083v12.35h-5.045v-11.704c0-1.883-0.416-3.303-1.25-4.258s-2.031-1.433-3.592-1.433c-1.695,0-3.055,0.559-4.076,1.675c-1.023,1.117-1.533,2.711-1.533,4.782v10.938h-5.045v-11.704c0-1.883-0.418-3.303-1.252-4.258s-2.031-1.433-3.592-1.433c-1.723,0-3.088,0.552-4.096,1.654c-1.01,1.104-1.514,2.704-1.514,4.803v10.938h-5.045v-21.552h4.803v2.744c0.807-0.968,1.816-1.708,3.025-2.22c1.211-0.511,2.557-0.767,4.037-0.767c1.613,0,3.047,0.303,4.297,0.908c1.252,0.605,2.24,1.5,2.967,2.684c0.889-1.13,2.031-2.011,3.432-2.644c1.398-0.632,2.945-0.948,4.641-0.948C378.68,374.253,380.832,375.04,382.42,376.614z M411.641,386.886h-16.912c0.297,1.588,1.07,2.845,2.322,3.773c1.25,0.928,2.805,1.393,4.66,1.393c2.367,0,4.318-0.78,5.854-2.341l2.703,3.107c-0.969,1.157-2.193,2.031-3.672,2.623c-1.48,0.592-3.148,0.888-5.006,0.888c-2.367,0-4.453-0.47-6.256-1.412c-1.803-0.941-3.195-2.253-4.176-3.936c-0.982-1.681-1.475-3.585-1.475-5.71c0-2.099,0.479-3.989,1.434-5.671c0.955-1.681,2.281-2.993,3.975-3.935c1.695-0.941,3.605-1.413,5.732-1.413c2.098,0,3.975,0.464,5.629,1.393s2.947,2.233,3.875,3.915s1.393,3.626,1.393,5.832C411.721,385.742,411.693,386.239,411.641,386.886z M396.727,379.722c-1.117,0.955-1.795,2.227-2.037,3.813h12.229c-0.217-1.56-0.875-2.824-1.979-3.793s-2.475-1.453-4.115-1.453C399.209,378.289,397.844,378.767,396.727,379.722z M454.137,396.047l-0.041-18.727l-9.281,15.498h-2.342l-9.283-15.256v18.484h-5.004v-28.251h4.318l11.221,18.727l11.018-18.727h4.318l0.041,28.251H454.137z M466.486,370.076c-0.619-0.578-0.93-1.298-0.93-2.159s0.311-1.58,0.93-2.159c0.617-0.578,1.385-0.868,2.299-0.868c0.916,0,1.682,0.276,2.301,0.827c0.619,0.552,0.93,1.245,0.93,2.079c0,0.888-0.303,1.635-0.908,2.239c-0.605,0.605-1.379,0.908-2.322,0.908C467.871,370.943,467.104,370.655,466.486,370.076z M466.244,374.495h5.045v21.552h-5.045V374.495z M481.781,394.917c-1.775-0.941-3.162-2.253-4.156-3.936c-0.996-1.681-1.494-3.585-1.494-5.71c0-2.126,0.498-4.022,1.494-5.691c0.994-1.668,2.373-2.973,4.137-3.914c1.762-0.941,3.773-1.413,6.033-1.413c2.125,0,3.988,0.431,5.59,1.292c1.6,0.861,2.805,2.099,3.611,3.713l-3.875,2.26c-0.619-0.995-1.391-1.741-2.32-2.24c-0.928-0.497-1.943-0.746-3.047-0.746c-1.883,0-3.443,0.612-4.682,1.836c-1.238,1.225-1.855,2.859-1.855,4.904s0.611,3.679,1.836,4.903c1.223,1.225,2.791,1.836,4.701,1.836c1.104,0,2.119-0.248,3.047-0.746c0.93-0.498,1.701-1.244,2.32-2.24l3.875,2.26c-0.834,1.614-2.053,2.859-3.652,3.733c-1.602,0.875-3.451,1.312-5.549,1.312C485.561,396.329,483.557,395.859,481.781,394.917z M513.826,374.253v4.803c-0.432-0.081-0.822-0.121-1.17-0.121c-1.965,0-3.498,0.572-4.602,1.716s-1.654,2.791-1.654,4.943v10.453h-5.045v-21.552h4.803v3.148C507.611,375.383,510.166,374.253,513.826,374.253z M521.695,394.917c-1.75-0.941-3.115-2.253-4.096-3.936c-0.982-1.681-1.475-3.585-1.475-5.71c0-2.126,0.492-4.022,1.475-5.691c0.98-1.668,2.346-2.973,4.096-3.914c1.748-0.941,3.713-1.413,5.893-1.413c2.205,0,4.184,0.472,5.934,1.413c1.748,0.941,3.113,2.246,4.096,3.914c0.982,1.669,1.473,3.565,1.473,5.691c0,2.125-0.49,4.029-1.473,5.71c-0.982,1.683-2.348,2.994-4.096,3.936c-1.75,0.942-3.729,1.412-5.934,1.412C525.408,396.329,523.443,395.859,521.695,394.917z M532.189,390.154c1.211-1.237,1.816-2.865,1.816-4.883c0-2.019-0.605-3.646-1.816-4.884c-1.211-1.237-2.744-1.856-4.602-1.856s-3.385,0.619-4.58,1.856c-1.197,1.238-1.797,2.865-1.797,4.884c0,2.018,0.6,3.646,1.797,4.883c1.195,1.238,2.723,1.856,4.58,1.856S530.979,391.393,532.189,390.154z M562.438,369.007c1.816,0.807,3.209,1.964,4.178,3.471s1.453,3.296,1.453,5.367c0,2.045-0.484,3.828-1.453,5.348c-0.969,1.521-2.361,2.684-4.178,3.491s-3.949,1.211-6.396,1.211h-6.377v8.152h-5.246v-28.251h11.623C558.488,367.796,560.621,368.199,562.438,369.007z M561.004,382.002c1.184-0.969,1.777-2.354,1.777-4.157c0-1.802-0.594-3.188-1.777-4.156c-1.184-0.969-2.918-1.453-5.205-1.453h-6.135v11.22h6.135C558.086,383.455,559.82,382.971,561.004,382.002z M593.213,374.495l-10.09,23.287c-0.943,2.341-2.086,3.988-3.432,4.944c-1.346,0.954-2.973,1.433-4.883,1.433c-1.076,0-2.139-0.176-3.189-0.524c-1.049-0.351-1.91-0.835-2.582-1.453l2.018-3.713c0.484,0.457,1.057,0.82,1.715,1.089c0.66,0.27,1.326,0.404,1.998,0.404c0.889,0,1.621-0.229,2.199-0.687c0.578-0.458,1.111-1.225,1.596-2.3l0.363-0.848l-9.404-21.633h5.246l6.781,15.941l6.82-15.941H593.213z M609.92,394.877c-0.592,0.483-1.312,0.847-2.16,1.089s-1.742,0.363-2.684,0.363c-2.367,0-4.197-0.618-5.488-1.856c-1.291-1.237-1.938-3.04-1.938-5.408v-10.372H594.1v-4.036h3.551v-4.924h5.045v4.924h5.771v4.036h-5.771v10.251c0,1.05,0.256,1.851,0.768,2.401c0.51,0.552,1.25,0.828,2.219,0.828c1.131,0,2.072-0.296,2.826-0.889L609.92,394.877z M632.844,376.634c1.641,1.588,2.461,3.942,2.461,7.063v12.35h-5.045v-11.704c0-1.883-0.443-3.303-1.332-4.258c-0.887-0.955-2.152-1.433-3.793-1.433c-1.855,0-3.322,0.559-4.398,1.675c-1.076,1.117-1.615,2.725-1.615,4.823v10.896h-5.045v-29.946h5.045v10.896c0.834-0.888,1.863-1.566,3.088-2.038c1.225-0.47,2.59-0.706,4.096-0.706C629.023,374.253,631.201,375.047,632.844,376.634z M645.717,394.917c-1.75-0.941-3.115-2.253-4.096-3.936c-0.982-1.681-1.475-3.585-1.475-5.71c0-2.126,0.492-4.022,1.475-5.691c0.98-1.668,2.346-2.973,4.096-3.914c1.748-0.941,3.713-1.413,5.893-1.413c2.205,0,4.184,0.472,5.934,1.413c1.748,0.941,3.113,2.246,4.096,3.914c0.982,1.669,1.473,3.565,1.473,5.691c0,2.125-0.49,4.029-1.473,5.71c-0.982,1.683-2.348,2.994-4.096,3.936c-1.75,0.942-3.729,1.412-5.934,1.412C649.43,396.329,647.465,395.859,645.717,394.917z M656.211,390.154c1.211-1.237,1.816-2.865,1.816-4.883c0-2.019-0.605-3.646-1.816-4.884c-1.211-1.237-2.744-1.856-4.602-1.856s-3.385,0.619-4.58,1.856c-1.197,1.238-1.797,2.865-1.797,4.884c0,2.018,0.6,3.646,1.797,4.883c1.195,1.238,2.723,1.856,4.58,1.856S655,391.393,656.211,390.154z M686.721,376.634c1.641,1.588,2.463,3.942,2.463,7.063v12.35h-5.045v-11.704c0-1.883-0.443-3.303-1.332-4.258s-2.152-1.433-3.793-1.433c-1.857,0-3.324,0.559-4.4,1.675c-1.076,1.117-1.613,2.725-1.613,4.823v10.896h-5.045v-21.552h4.803v2.785c0.832-0.995,1.883-1.749,3.146-2.261c1.266-0.511,2.691-0.767,4.279-0.767C682.9,374.253,685.08,375.047,686.721,376.634z"/>
</svg>
